<?xml version="1.0" encoding="UTF-8" standalone="no"?>
<svg width="60px" height="60px" viewBox="0 0 60 60" version="1.1" xmlns="http://www.w3.org/2000/svg" xmlns:xlink="http://www.w3.org/1999/xlink" xmlns:sketch="http://www.bohemiancoding.com/sketch/ns">
    <!-- Generator: Sketch 3.3.3 (12081) - http://www.bohemiancoding.com/sketch -->
    <title>Genericuser</title>
    <desc>Created with Sketch.</desc>
    <defs></defs>
    <g id="outlined" stroke="none" stroke-width="1" fill="none" fill-rule="evenodd" sketch:type="MSPage">
        <g id="Interface_sliced" sketch:type="MSLayerGroup" transform="translate(-480.000000, -2280.000000)"></g>
        <g id="Imported-Layers" sketch:type="MSLayerGroup" transform="translate(-478.000000, -2276.000000)" fill="#535353">
            <path d="M527.172,2328.56 C527.061,2328.56 526.948,2328.541 526.837,2328.502 C524.874,2327.805 520.988,2326.479 517.032,2325.43 C516.638,2325.325 516.347,2324.991 516.296,2324.587 L515.847,2321 L500.319,2321 L499.871,2324.587 C499.82,2324.991 499.529,2325.325 499.135,2325.43 C495.167,2326.48 491.292,2327.805 489.335,2328.5 C488.815,2328.682 488.242,2328.412 488.058,2327.893 C487.873,2327.372 488.144,2326.801 488.665,2326.615 C490.544,2325.947 494.166,2324.709 497.97,2323.672 L498.444,2319.876 C498.507,2319.376 498.933,2319 499.437,2319 L516.729,2319 C517.233,2319 517.659,2319.375 517.722,2319.876 L518.197,2323.672 C521.991,2324.707 525.622,2325.948 527.507,2326.617 C528.027,2326.802 528.299,2327.374 528.114,2327.894 C527.969,2328.304 527.583,2328.56 527.172,2328.56" id="Fill-963" sketch:type="MSShapeGroup"></path>
            <path d="M515.2,2321 L500.959,2321 C500.406,2321 499.959,2320.553 499.959,2320 L499.959,2314.511 C498.841,2313.153 497.893,2311.503 497.184,2309.683 C495.886,2309.66 494.778,2308.68 494.597,2307.385 L494.026,2303.33 C493.852,2302.087 494.565,2300.92 495.681,2300.478 C495.733,2298.873 495.941,2297.297 496.299,2295.779 C496.249,2295.357 496.224,2294.93 496.224,2294.507 C496.224,2289.052 500.498,2284.316 506.184,2283.452 C507.786,2282.896 510.659,2282 512.58,2282 C513.417,2282 513.925,2282.384 514.204,2282.705 C514.699,2283.277 514.903,2284.128 514.821,2285.294 C518.036,2287.389 519.936,2290.787 519.936,2294.507 C519.936,2294.93 519.91,2295.357 519.86,2295.779 C520.216,2297.286 520.423,2298.851 520.478,2300.442 C520.934,2300.619 521.334,2300.921 521.637,2301.322 C522.068,2301.894 522.25,2302.602 522.149,2303.314 L521.574,2307.405 C521.392,2308.71 520.273,2309.697 518.964,2309.715 C518.256,2311.521 517.312,2313.161 516.2,2314.511 L516.2,2320 C516.2,2320.553 515.753,2321 515.2,2321 L515.2,2321 Z M501.959,2319 L514.2,2319 L514.2,2314.145 C514.2,2313.903 514.287,2313.671 514.445,2313.488 C515.66,2312.091 516.67,2310.287 517.364,2308.271 C517.453,2308.014 517.645,2307.803 517.893,2307.688 C518.141,2307.573 518.426,2307.566 518.68,2307.669 C518.727,2307.687 518.776,2307.7 518.83,2307.708 C519.276,2307.726 519.546,2307.467 519.594,2307.127 L520.169,2303.035 C520.195,2302.852 520.149,2302.671 520.04,2302.525 C519.933,2302.384 519.775,2302.292 519.597,2302.267 C519.348,2302.305 519.026,2302.163 518.836,2301.976 C518.646,2301.788 518.492,2301.528 518.492,2301.262 C518.489,2299.482 518.281,2297.736 517.873,2296.073 C517.844,2295.951 517.837,2295.824 517.854,2295.699 C517.908,2295.305 517.935,2294.903 517.935,2294.507 C517.935,2291.298 516.188,2288.373 513.26,2286.682 C512.905,2286.477 512.712,2286.077 512.77,2285.673 C512.962,2284.342 512.698,2284.022 512.69,2284.012 C512.688,2284.012 512.656,2284 512.58,2284 C511.366,2284 509.243,2284.5 506.755,2285.371 C506.693,2285.393 506.63,2285.408 506.566,2285.418 C501.81,2286.102 498.224,2290.009 498.224,2294.507 C498.224,2294.903 498.251,2295.305 498.306,2295.699 C498.322,2295.824 498.315,2295.95 498.286,2296.073 C497.876,2297.746 497.668,2299.502 497.667,2301.293 C497.667,2301.56 497.56,2301.815 497.369,2302.004 C497.183,2302.188 496.93,2302.292 496.667,2302.292 L496.654,2302.292 C496.201,2302.35 495.955,2302.681 496.007,2303.052 L496.577,2307.106 C496.624,2307.441 496.898,2307.684 497.229,2307.684 C497.376,2307.669 497.427,2307.656 497.481,2307.635 C497.733,2307.538 498.016,2307.547 498.263,2307.662 C498.509,2307.777 498.697,2307.987 498.786,2308.244 C499.481,2310.271 500.493,2312.084 501.714,2313.488 C501.872,2313.671 501.959,2313.903 501.959,2314.145 L501.959,2319 L501.959,2319 Z" id="Fill-964" sketch:type="MSShapeGroup"></path>
        </g>
    </g>
</svg>